# xmcd CD database file
#
# Track frame offsets:
#	151
#	17424
#	29630
#	42955
#	55038
#	67285
#	80608
#	93343
#	106830
#	130691
#	147618
#	160974
#	181552
#	192895
#	204848
#	223184
#	236460
#	263141
#
# Disc length: 3674 seconds
#
# Revision: 0
# Processed by: cddbd v1.4PL0 Copyright (c) Steve Scherf et al.
# Submitted via: Feurio! 1.65 - http://www.feurio.com
#
DISCID=f80e5812
DTITLE=Various Artist - Blues Brother Soul Sister
DYEAR=1900
DGENRE=Blues
TTITLE0=Brook Benton - Rainy Night in Georgia
TTITLE1=Gladys Knight - Come see about me
TTITLE2=Sam and Dave - Soul Man
TTITLE3=Three Degrees - When Will I See You Again
TTITLE4=Eddie Floyd  - Bring It  On Home To Me
TTITLE5=The Supremes - Stop! In the name of Love
TTITLE6=Muddy Waters - Baby Please don't go
TTITLE7=Brenda Holloway - Every Little Bit Hursts
TTITLE8=Howlin' Wolf - Rockin' The Blues
TTITLE9=Lena Horne - Every Time We Say Goodbye
TTITLE10=Percy Sledge - When a man Loves a Woman
TTITLE11=Syreeta - With you I'm Born Again
TTITLE12=John Lee Hooker - Boom Boom
TTITLE13=Mary Wells - My Guy
TTITLE14=The Chi-Lites - Have you seen her
TTITLE15=Bille Holiday - That Ole Devil Called Love
TTITLE16=Billy Paul - Me and Mrs. Jones
TTITLE17=Candi Stanton - In The Ghetto
EXTD=
EXTT0=
EXTT1=
EXTT2=
EXTT3=
EXTT4=
EXTT5=
EXTT6=
EXTT7=
EXTT8=
EXTT9=
EXTT10=
EXTT11=
EXTT12=
EXTT13=
EXTT14=
EXTT15=
EXTT16=
EXTT17=
PLAYORDER=
